Amatic-Bold.ufo
<glyph name="quotedbl" format="1">
  <advance width="359"/>
  <unicode hex="0022"/>
  <outline>
    <contour>
      <point x="175" y="1193" type="line" smooth="yes"/>
      <point x="162" y="1193"/>
      <point x="146" y="1435"/>
      <point x="146" y="1531" type="curve" smooth="yes"/>
      <point x="146" y="1559"/>
      <point x="179" y="1578"/>
      <point x="207" y="1578" type="curve" smooth="yes"/>
      <point x="226" y="1578"/>
      <point x="236" y="1556"/>
      <point x="241" y="1531" type="curve"/>
      <point x="238" y="1433"/>
      <point x="215" y="1193"/>
      <point x="182" y="1193" type="curve" smooth="yes"/>
    </contour>
    <contour>
      <point x="-31" y="1193" type="line" smooth="yes"/>
      <point x="-35" y="1193"/>
      <point x="-40" y="1435"/>
      <point x="-40" y="1531" type="curve" smooth="yes"/>
      <point x="-40" y="1559"/>
      <point x="-17" y="1578"/>
      <point x="1" y="1578" type="curve" smooth="yes"/>
      <point x="31" y="1578"/>
      <point x="46" y="1556"/>
      <point x="50" y="1525" type="curve" smooth="yes"/>
      <point x="50" y="1521"/>
      <point x="51" y="1514"/>
      <point x="51" y="1511" type="curve" smooth="yes"/>
      <point x="51" y="1407"/>
      <point x="16" y="1193"/>
      <point x="-24" y="1193" type="curve" smooth="yes"/>
    </contour>
  </outline>
</glyph>
<glyph name="plus" format="1">
  <advance width="853"/>
  <unicode hex="002B"/>
  <outline>
    <contour>
      <point x="354" y="385" type="curve" smooth="yes"/>
      <point x="354" y="451"/>
      <point x="341" y="518"/>
      <point x="341" y="584" type="curve" smooth="yes"/>
      <point x="341" y="599" type="line"/>
      <point x="313" y="599"/>
      <point x="267" y="590"/>
      <point x="227" y="590" type="curve" smooth="yes"/>
      <point x="180" y="590"/>
      <point x="140" y="602"/>
      <point x="140" y="655" type="curve" smooth="yes"/>
      <point x="140" y="682"/>
      <point x="157" y="708"/>
      <point x="186" y="708" type="curve" smooth="yes"/>
      <point x="226" y="708"/>
      <point x="267" y="701"/>
      <point x="307" y="701" type="curve" smooth="yes"/>
      <point x="323" y="701"/>
      <point x="338" y="702"/>
      <point x="354" y="705" type="curve"/>
      <point x="352" y="755"/>
      <point x="342" y="805"/>
      <point x="342" y="855" type="curve" smooth="yes"/>
      <point x="342" y="900"/>
      <point x="349" y="968"/>
      <point x="408" y="968" type="curve" smooth="yes"/>
      <point x="440" y="968"/>
      <point x="460" y="942"/>
      <point x="460" y="909" type="curve" smooth="yes"/>
      <point x="460" y="884" type="line" smooth="yes"/>
      <point x="461" y="853"/>
      <point x="460" y="701"/>
      <point x="487" y="701" type="curve" smooth="yes"/>
      <point x="512" y="701"/>
      <point x="560" y="709"/>
      <point x="606" y="709" type="curve" smooth="yes"/>
      <point x="661" y="709"/>
      <point x="712" y="697"/>
      <point x="712" y="647" type="curve" smooth="yes"/>
      <point x="712" y="615"/>
      <point x="686" y="591"/>
      <point x="654" y="591" type="curve" smooth="yes"/>
      <point x="613" y="591"/>
      <point x="574" y="602"/>
      <point x="533" y="602" type="curve" smooth="yes"/>
      <point x="499" y="602"/>
      <point x="468" y="593"/>
      <point x="468" y="553" type="curve" smooth="yes"/>
      <point x="468" y="498"/>
      <point x="487" y="444"/>
      <point x="487" y="389" type="curve" smooth="yes"/>
      <point x="487" y="353"/>
      <point x="452" y="333"/>
      <point x="420" y="333" type="curve" smooth="yes"/>
      <point x="391" y="333"/>
      <point x="354" y="352"/>
    </contour>
  </outline>
</glyph>
<glyph name="comma" format="1">
  <advance width="451"/>
  <unicode hex="002C"/>
  <outline>
    <contour>
      <point x="273" y="185" type="curve" smooth="yes"/>
      <point x="323" y="185"/>
      <point x="344" y="141"/>
      <point x="344" y="77" type="curve" smooth="yes"/>
      <point x="344" y="-15"/>
      <point x="237" y="-202"/>
      <point x="132" y="-202" type="curve" smooth="yes"/>
      <point x="116" y="-202"/>
      <point x="102" y="-192"/>
      <point x="102" y="-175" type="curve" smooth="yes"/>
      <point x="102" y="-163"/>
      <point x="108" y="-146"/>
      <point x="127" y="-130" type="curve" smooth="yes"/>
      <point x="207" y="-36"/>
      <point x="174" y="185"/>
    </contour>
  </outline>
</glyph>
<glyph name="zero" format="1">
  <advance width="660"/>
  <unicode hex="0030"/>
  <outline>
    <contour>
      <point x="471" y="568" type="curve" smooth="yes"/>
      <point x="471" y="848"/>
      <point x="449" y="1490"/>
      <point x="249" y="1518" type="curve"/>
      <point x="204" y="1481"/>
      <point x="196" y="1451"/>
      <point x="196" y="1395" type="curve" smooth="yes"/>
      <point x="196" y="1260"/>
      <point x="204" y="1125"/>
      <point x="204" y="990" type="curve" smooth="yes"/>
      <point x="204" y="923"/>
      <point x="225" y="857"/>
      <point x="225" y="790" type="curve" smooth="yes"/>
      <point x="225" y="685"/>
      <point x="233" y="100"/>
      <point x="365" y="100" type="curve" smooth="yes"/>
      <point x="452" y="100"/>
      <point x="471" y="497"/>
    </contour>
    <contour>
      <point x="98" y="1222" type="curve" smooth="yes"/>
      <point x="98" y="1408"/>
      <point x="131" y="1563"/>
      <point x="272" y="1563" type="curve" smooth="yes"/>
      <point x="562" y="1563"/>
      <point x="566" y="798"/>
      <point x="566" y="521" type="curve" smooth="yes"/>
      <point x="566" y="373"/>
      <point x="558" y="7"/>
      <point x="346" y="7" type="curve" smooth="yes"/>
      <point x="88" y="7"/>
      <point x="98" y="976"/>
    </contour>
  </outline>
</glyph>
<glyph name="six" format="1">
  <advance width="562"/>
  <unicode hex="0036"/>
  <outline>
    <contour>
      <point x="95" y="880" type="curve" smooth="yes"/>
      <point x="95" y="1030"/>
      <point x="94" y="1586"/>
      <point x="315" y="1586" type="curve" smooth="yes"/>
      <point x="335" y="1586"/>
      <point x="363" y="1567"/>
      <point x="363" y="1545" type="curve" smooth="yes"/>
      <point x="363" y="1505"/>
      <point x="318" y="1482"/>
      <point x="285" y="1475" type="curve"/>
      <point x="228" y="1419"/>
      <point x="200" y="1044"/>
      <point x="196" y="949" type="curve"/>
      <point x="207" y="951"/>
      <point x="218" y="952"/>
      <point x="228" y="952" type="curve" smooth="yes"/>
      <point x="464" y="952"/>
      <point x="474" y="396"/>
      <point x="474" y="236" type="curve" smooth="yes"/>
      <point x="474" y="114"/>
      <point x="464" y="-14"/>
      <point x="309" y="-14" type="curve" smooth="yes"/>
      <point x="67" y="-14"/>
      <point x="95" y="635"/>
    </contour>
    <contour>
      <point x="325" y="73" type="curve" smooth="yes"/>
      <point x="377" y="73"/>
      <point x="378" y="177"/>
      <point x="378" y="212" type="curve" smooth="yes"/>
      <point x="378" y="320"/>
      <point x="358" y="860"/>
      <point x="240" y="882" type="curve"/>
      <point x="198" y="853"/>
      <point x="195" y="814"/>
      <point x="195" y="770" type="curve" smooth="yes"/>
      <point x="195" y="635"/>
      <point x="200" y="73"/>
    </contour>
  </outline>
</glyph>
<glyph name="nine" format="1">
  <advance width="563"/>
  <unicode hex="0039"/>
  <outline>
    <contour>
      <point x="440" y="237" type="curve"/>
      <point x="439" y="188"/>
      <point x="426" y="139"/>
      <point x="426" y="90" type="curve" smooth="yes"/>
      <point x="426" y="78"/>
      <point x="427" y="64"/>
      <point x="427" y="49" type="curve" smooth="yes"/>
      <point x="427" y="9"/>
      <point x="409" y="-34"/>
      <point x="359" y="-34" type="curve"/>
      <point x="327" y="4" type="line"/>
      <point x="357" y="94"/>
      <point x="359" y="502"/>
      <point x="359" y="686" type="curve" smooth="yes"/>
      <point x="359" y="772"/>
      <point x="356" y="848"/>
      <point x="355" y="931" type="curve"/>
      <point x="206" y="965"/>
      <point x="94" y="1087"/>
      <point x="94" y="1243" type="curve" smooth="yes"/>
      <point x="94" y="1370"/>
      <point x="121" y="1614"/>
      <point x="292" y="1614" type="curve" smooth="yes"/>
      <point x="433" y="1614"/>
      <point x="464" y="1547"/>
      <point x="464" y="1420" type="curve" smooth="yes"/>
      <point x="464" y="1026"/>
      <point x="440" y="631"/>
    </contour>
    <contour>
      <point x="357" y="1009" type="curve"/>
      <point x="365" y="1148"/>
      <point x="366" y="1288"/>
      <point x="366" y="1427" type="curve" smooth="yes"/>
      <point x="366" y="1480"/>
      <point x="357" y="1527"/>
      <point x="293" y="1527" type="curve" smooth="yes"/>
      <point x="212" y="1527"/>
      <point x="194" y="1306"/>
      <point x="194" y="1247" type="curve" smooth="yes"/>
      <point x="194" y="1085"/>
      <point x="254" y="1067"/>
    </contour>
  </outline>
</glyph>
<glyph name="colon" format="1">
  <advance width="443"/>
  <unicode hex="003A"/>
  <outline>
    <contour>
      <point x="138" y="250" type="curve" smooth="yes"/>
      <point x="138" y="291"/>
      <point x="174" y="329"/>
      <point x="215" y="329" type="curve" smooth="yes"/>
      <point x="254" y="329"/>
      <point x="287" y="290"/>
      <point x="287" y="252" type="curve" smooth="yes"/>
      <point x="287" y="206"/>
      <point x="252" y="177"/>
      <point x="207" y="177" type="curve" smooth="yes"/>
      <point x="169" y="177"/>
      <point x="138" y="213"/>
    </contour>
    <contour>
      <point x="159" y="1024" type="curve" smooth="yes"/>
      <point x="159" y="1064"/>
      <point x="194" y="1103"/>
      <point x="235" y="1103" type="curve" smooth="yes"/>
      <point x="274" y="1103"/>
      <point x="308" y="1064"/>
      <point x="308" y="1026" type="curve" smooth="yes"/>
      <point x="308" y="979"/>
      <point x="272" y="951"/>
      <point x="227" y="951" type="curve" smooth="yes"/>
      <point x="189" y="951"/>
      <point x="159" y="987"/>
    </contour>
  </outline>
</glyph>
<glyph name="less" format="1">
  <advance width="524"/>
  <unicode hex="003C"/>
  <outline>
    <contour>
      <point x="37" y="698" type="curve"/>
      <point x="39" y="756"/>
      <point x="296" y="1447"/>
      <point x="360" y="1447" type="curve" smooth="yes"/>
      <point x="362" y="1447"/>
      <point x="364" y="1446"/>
      <point x="367" y="1446" type="curve"/>
      <point x="412" y="1411" type="line"/>
      <point x="385" y="1193"/>
      <point x="154" y="869"/>
      <point x="154" y="702" type="curve" smooth="yes"/>
      <point x="154" y="679"/>
      <point x="428" y="115"/>
      <point x="465" y="49" type="curve"/>
      <point x="491" y="49" type="line"/>
      <point x="489" y="19"/>
      <point x="474" y="-22"/>
      <point x="437" y="-22" type="curve" smooth="yes"/>
      <point x="285" y="-22"/>
      <point x="95" y="577"/>
    </contour>
  </outline>
</glyph>
<glyph name="question" format="1">
  <advance width="464"/>
  <unicode hex="003F"/>
  <outline>
    <contour>
      <point x="131" y="68" type="curve" smooth="yes"/>
      <point x="131" y="107"/>
      <point x="171" y="148"/>
      <point x="211" y="148" type="curve" smooth="yes"/>
      <point x="248" y="148"/>
      <point x="286" y="102"/>
      <point x="286" y="70" type="curve" smooth="yes"/>
      <point x="286" y="15"/>
      <point x="251" y="-8"/>
      <point x="203" y="-8" type="curve" smooth="yes"/>
      <point x="163" y="-8"/>
      <point x="131" y="31"/>
    </contour>
    <contour>
      <point x="63" y="1359" type="curve" smooth="yes"/>
      <point x="63" y="1446"/>
      <point x="93" y="1547"/>
      <point x="203" y="1547" type="curve" smooth="yes"/>
      <point x="363" y="1547"/>
      <point x="378" y="1388"/>
      <point x="378" y="1260" type="curve" smooth="yes"/>
      <point x="378" y="945"/>
      <point x="253" y="823"/>
      <point x="253" y="366" type="curve" smooth="yes"/>
      <point x="253" y="332"/>
      <point x="253" y="267"/>
      <point x="254" y="229" type="curve"/>
      <point x="193" y="229"/>
      <point x="222" y="223"/>
      <point x="203" y="223" type="curve" smooth="yes"/>
      <point x="182" y="223"/>
      <point x="163" y="232"/>
      <point x="153" y="269" type="curve"/>
      <point x="153" y="632"/>
      <point x="268" y="949"/>
      <point x="268" y="1258" type="curve" smooth="yes"/>
      <point x="268" y="1297"/>
      <point x="266" y="1447"/>
      <point x="207" y="1447" type="curve" smooth="yes"/>
      <point x="174" y="1447"/>
      <point x="168" y="1397"/>
      <point x="168" y="1356" type="curve" smooth="yes"/>
      <point x="168" y="1341"/>
      <point x="174" y="1299"/>
      <point x="182" y="1245" type="curve" smooth="yes"/>
      <point x="182" y="1241"/>
      <point x="145" y="1203"/>
      <point x="121" y="1203" type="curve" smooth="yes"/>
      <point x="59" y="1203"/>
      <point x="63" y="1308"/>
    </contour>
  </outline>
</glyph>
<glyph name="at" format="1">
  <advance width="1030"/>
  <unicode hex="0040"/>
  <outline>
    <contour>
      <point x="430" y="-120" type="curve" smooth="yes"/>
      <point x="17" y="-120"/>
      <point x="15" y="685"/>
      <point x="15" y="956" type="curve" smooth="yes"/>
      <point x="15" y="1262"/>
      <point x="23" y="1719"/>
      <point x="478" y="1719" type="curve" smooth="yes"/>
      <point x="906" y="1719"/>
      <point x="985" y="1150"/>
      <point x="985" y="767" type="curve" smooth="yes"/>
      <point x="985" y="645"/>
      <point x="981" y="406"/>
      <point x="809" y="406" type="curve" smooth="yes"/>
      <point x="770" y="406"/>
      <point x="734" y="459"/>
      <point x="706" y="519" type="curve"/>
      <point x="662" y="398"/>
      <point x="578" y="306"/>
      <point x="487" y="306" type="curve" smooth="yes"/>
      <point x="260" y="306"/>
      <point x="258" y="661"/>
      <point x="258" y="851" type="curve" smooth="yes"/>
      <point x="258" y="1047"/>
      <point x="262" y="1351"/>
      <point x="491" y="1351" type="curve" smooth="yes"/>
      <point x="759" y="1351"/>
      <point x="759" y="818"/>
      <point x="788" y="565" type="curve"/>
      <point x="788" y="556" type="line"/>
      <point x="817" y="510" type="line"/>
      <point x="865" y="536"/>
      <point x="870" y="723"/>
      <point x="870" y="776" type="curve" smooth="yes"/>
      <point x="870" y="1092"/>
      <point x="813" y="1612"/>
      <point x="468" y="1612" type="curve" smooth="yes"/>
      <point x="152" y="1612"/>
      <point x="136" y="1300"/>
      <point x="136" y="1050" type="curve" smooth="yes"/>
      <point x="136" y="966" type="line" smooth="yes"/>
      <point x="136" y="930" type="line" smooth="yes"/>
      <point x="136" y="688"/>
      <point x="144" y="-31"/>
      <point x="434" y="-31" type="curve" smooth="yes"/>
      <point x="730" y="-31"/>
      <point x="794" y="150"/>
      <point x="876" y="150" type="curve" smooth="yes"/>
      <point x="888" y="150"/>
      <point x="894" y="142"/>
      <point x="894" y="130" type="curve" smooth="yes"/>
      <point x="894" y="72"/>
      <point x="744" y="-120"/>
    </contour>
    <contour>
      <point x="491" y="1246" type="curve" smooth="yes"/>
      <point x="409" y="1246"/>
      <point x="365" y="1035"/>
      <point x="365" y="825" type="curve" smooth="yes"/>
      <point x="365" y="617"/>
      <point x="409" y="410"/>
      <point x="503" y="410" type="curve" smooth="yes"/>
      <point x="565" y="410"/>
      <point x="638" y="550"/>
      <point x="638" y="605" type="curve" smooth="yes"/>
      <point x="638" y="759" type="line" smooth="yes"/>
      <point x="638" y="875"/>
      <point x="612" y="1246"/>
    </contour>
  </outline>
</glyph>
<glyph name="R" format="1">
  <advance width="548"/>
  <unicode hex="0052"/>
  <outline>
    <contour>
      <point x="187" y="859" type="curve"/>
      <point x="187" y="52" type="line" smooth="yes"/>
      <point x="187" y="17"/>
      <point x="181" y="-13"/>
      <point x="130" y="-13" type="curve" smooth="yes"/>
      <point x="99" y="-13"/>
      <point x="78" y="12"/>
      <point x="78" y="44" type="curve" smooth="yes"/>
      <point x="78" y="60" type="line" smooth="yes"/>
      <point x="78" y="460"/>
      <point x="86" y="861"/>
      <point x="86" y="1261" type="curve" smooth="yes"/>
      <point x="86" y="1513" type="line" smooth="yes"/>
      <point x="86" y="1541"/>
      <point x="91" y="1557"/>
      <point x="140" y="1557" type="curve" smooth="yes"/>
      <point x="317" y="1557"/>
      <point x="398" y="1370"/>
      <point x="398" y="1217" type="curve" smooth="yes"/>
      <point x="398" y="1097"/>
      <point x="346" y="985"/>
      <point x="303" y="876" type="curve"/>
      <point x="306" y="648"/>
      <point x="443" y="299"/>
      <point x="514" y="76" type="curve"/>
      <point x="514" y="71" type="line" smooth="yes"/>
      <point x="514" y="35"/>
      <point x="515" y="-21"/>
      <point x="464" y="-21" type="curve" smooth="yes"/>
      <point x="430" y="-21"/>
      <point x="407" y="8"/>
      <point x="390" y="34" type="curve"/>
      <point x="390" y="41" type="line"/>
      <point x="374" y="299"/>
      <point x="253" y="598"/>
    </contour>
    <contour>
      <point x="283" y="1207" type="line" smooth="yes"/>
      <point x="294" y="1265"/>
      <point x="261" y="1449"/>
      <point x="191" y="1463" type="curve"/>
      <point x="190" y="1324"/>
      <point x="180" y="1184"/>
      <point x="180" y="1045" type="curve" smooth="yes"/>
      <point x="180" y="1014"/>
      <point x="180" y="982"/>
      <point x="182" y="951" type="curve"/>
      <point x="207" y="975"/>
      <point x="230" y="1002"/>
      <point x="251" y="1030" type="curve"/>
    </contour>
  </outline>
</glyph>
<glyph name="T" format="1">
  <advance width="492"/>
  <unicode hex="0054"/>
  <outline>
    <contour>
      <point x="317" y="925" type="curve" smooth="yes"/>
      <point x="317" y="765"/>
      <point x="335" y="615"/>
      <point x="335" y="454" type="curve" smooth="yes"/>
      <point x="335" y="331"/>
      <point x="352" y="209"/>
      <point x="352" y="86" type="curve" smooth="yes"/>
      <point x="352" y="46"/>
      <point x="346" y="-14"/>
      <point x="293" y="-14" type="curve" smooth="yes"/>
      <point x="242" y="-14"/>
      <point x="227" y="48"/>
      <point x="227" y="89" type="curve" smooth="yes"/>
      <point x="227" y="198"/>
      <point x="243" y="307"/>
      <point x="243" y="416" type="curve" smooth="yes"/>
      <point x="243" y="629"/>
      <point x="215" y="841"/>
      <point x="215" y="1054" type="curve" smooth="yes"/>
      <point x="215" y="1093"/>
      <point x="218" y="1163"/>
      <point x="218" y="1233" type="curve" smooth="yes"/>
      <point x="218" y="1311"/>
      <point x="214" y="1389"/>
      <point x="199" y="1424" type="curve"/>
      <point x="162" y="1422"/>
      <point x="125" y="1413"/>
      <point x="88" y="1413" type="curve" smooth="yes"/>
      <point x="56" y="1413"/>
      <point x="21" y="1433"/>
      <point x="21" y="1469" type="curve" smooth="yes"/>
      <point x="21" y="1539"/>
      <point x="340" y="1550"/>
      <point x="397" y="1550" type="curve" smooth="yes"/>
      <point x="429" y="1550"/>
      <point x="463" y="1526"/>
      <point x="463" y="1492" type="curve" smooth="yes"/>
      <point x="463" y="1457"/>
      <point x="433" y="1438"/>
      <point x="401" y="1438" type="curve" smooth="yes"/>
      <point x="376" y="1438"/>
      <point x="352" y="1442"/>
      <point x="328" y="1442" type="curve" smooth="yes"/>
      <point x="321" y="1442"/>
      <point x="314" y="1442"/>
      <point x="307" y="1441" type="curve"/>
      <point x="317" y="1357"/>
      <point x="321" y="1273"/>
      <point x="321" y="1189" type="curve" smooth="yes"/>
      <point x="321" y="1102"/>
      <point x="317" y="1013"/>
    </contour>
  </outline>
</glyph>
<glyph name="U" format="1">
  <advance width="699"/>
  <unicode hex="0055"/>
  <outline>
    <contour>
      <point x="54" y="1435" type="curve"/>
      <point x="44" y="1446"/>
      <point x="39" y="1462"/>
      <point x="39" y="1477" type="curve" smooth="yes"/>
      <point x="39" y="1509"/>
      <point x="65" y="1540"/>
      <point x="98" y="1540" type="curve" smooth="yes"/>
      <point x="166" y="1540"/>
      <point x="172" y="1443"/>
      <point x="172" y="1394" type="curve" smooth="yes"/>
      <point x="172" y="1157"/>
      <point x="191" y="919"/>
      <point x="191" y="682" type="curve"/>
      <point x="209" y="641"/>
      <point x="220" y="492"/>
      <point x="220" y="444" type="curve" smooth="yes"/>
      <point x="220" y="335"/>
      <point x="295" y="35"/>
      <point x="436" y="35" type="curve" smooth="yes"/>
      <point x="520" y="35"/>
      <point x="521" y="160"/>
      <point x="521" y="219" type="curve" smooth="yes"/>
      <point x="521" y="619" type="line" smooth="yes"/>
      <point x="521" y="748"/>
      <point x="495" y="876"/>
      <point x="495" y="1005" type="curve" smooth="yes"/>
      <point x="495" y="1019" type="line" smooth="yes"/>
      <point x="495" y="1059"/>
      <point x="491" y="1098"/>
      <point x="491" y="1138" type="curve" smooth="yes"/>
      <point x="491" y="1255"/>
      <point x="476" y="1372"/>
      <point x="476" y="1489" type="curve" smooth="yes"/>
      <point x="476" y="1525"/>
      <point x="521" y="1545"/>
      <point x="553" y="1545" type="curve"/>
      <point x="603" y="1497" type="line"/>
      <point x="603" y="1463" type="line"/>
      <point x="602" y="1421"/>
      <point x="588" y="1380"/>
      <point x="588" y="1338" type="curve" smooth="yes"/>
      <point x="588" y="989"/>
      <point x="625" y="663"/>
      <point x="625" y="288" type="curve" smooth="yes"/>
      <point x="625" y="137"/>
      <point x="605" y="-37"/>
      <point x="423" y="-37" type="curve" smooth="yes"/>
      <point x="84" y="-37"/>
      <point x="52" y="607"/>
      <point x="52" y="1115" type="curve" smooth="yes"/>
      <point x="52" y="1232"/>
      <point x="54" y="1342"/>
    </contour>
  </outline>
</glyph>
<glyph name="bracketright" format="1">
  <advance width="472"/>
  <unicode hex="005D"/>
  <outline>
    <contour>
      <point x="185" y="-112" type="curve" smooth="yes"/>
      <point x="156" y="-112"/>
      <point x="118" y="-103"/>
      <point x="118" y="-68" type="curve" smooth="yes"/>
      <point x="118" y="11"/>
      <point x="269" y="5"/>
      <point x="321" y="6" type="curve"/>
      <point x="321" y="48" type="line"/>
      <point x="308" y="519"/>
      <point x="240" y="986"/>
      <point x="240" y="1458" type="curve" smooth="yes"/>
      <point x="240" y="1476" type="line"/>
      <point x="195" y="1475"/>
      <point x="151" y="1465"/>
      <point x="106" y="1465" type="curve" smooth="yes"/>
      <point x="75" y="1465"/>
      <point x="32" y="1471"/>
      <point x="32" y="1511" type="curve" smooth="yes"/>
      <point x="32" y="1573"/>
      <point x="182" y="1577"/>
      <point x="225" y="1577" type="curve" smooth="yes"/>
      <point x="241" y="1577"/>
      <point x="255" y="1578"/>
      <point x="267" y="1578" type="curve" smooth="yes"/>
      <point x="316" y="1578"/>
      <point x="336" y="1569"/>
      <point x="336" y="1481" type="curve" smooth="yes"/>
      <point x="336" y="1156"/>
      <point x="392" y="835"/>
      <point x="392" y="510" type="curve" smooth="yes"/>
      <point x="392" y="327"/>
      <point x="433" y="148"/>
      <point x="433" y="-35" type="curve" smooth="yes"/>
      <point x="433" y="-108"/>
      <point x="236" y="-112"/>
    </contour>
  </outline>
</glyph>
<glyph name="c" format="1">
  <advance width="505"/>
  <unicode hex="0063"/>
  <outline>
    <contour>
      <point x="396" y="1364" type="curve" smooth="yes"/>
      <point x="441" y="1364"/>
      <point x="459" y="1338"/>
      <point x="459" y="1312" type="curve" smooth="yes"/>
      <point x="459" y="1286"/>
      <point x="441" y="1260"/>
      <point x="415" y="1258" type="curve"/>
      <point x="319" y="1258" type="line" smooth="yes"/>
      <point x="199" y="1258"/>
      <point x="177" y="913"/>
      <point x="177" y="827" type="curve" smooth="yes"/>
      <point x="177" y="817" type="line" smooth="yes"/>
      <point x="177" y="685"/>
      <point x="168" y="554"/>
      <point x="168" y="422" type="curve" smooth="yes"/>
      <point x="168" y="286"/>
      <point x="180" y="79"/>
      <point x="362" y="79" type="curve" smooth="yes"/>
      <point x="378" y="79"/>
      <point x="394" y="86"/>
      <point x="406" y="97" type="curve"/>
      <point x="434" y="97"/>
      <point x="468" y="85"/>
      <point x="468" y="52" type="curve" smooth="yes"/>
      <point x="468" y="-9"/>
      <point x="416" y="-29"/>
      <point x="355" y="-29" type="curve" smooth="yes"/>
      <point x="290" y="-29"/>
      <point x="214" y="-6"/>
      <point x="183" y="14" type="curve" smooth="yes"/>
      <point x="55" y="97"/>
      <point x="47" y="359"/>
      <point x="47" y="495" type="curve" smooth="yes"/>
      <point x="47" y="527"/>
      <point x="46" y="569"/>
      <point x="46" y="615" type="curve" smooth="yes"/>
      <point x="46" y="664" type="line" smooth="yes"/>
      <point x="46" y="1005"/>
      <point x="54" y="1364"/>
    </contour>
  </outline>
</glyph>
<glyph name="d" format="1">
  <advance width="610"/>
  <unicode hex="0064"/>
  <outline>
    <contour>
      <point x="55" y="1286" type="curve" smooth="yes"/>
      <point x="55" y="1322"/>
      <point x="93" y="1353"/>
      <point x="127" y="1353" type="curve" smooth="yes"/>
      <point x="377" y="1353"/>
      <point x="546" y="1054"/>
      <point x="546" y="808" type="curve" smooth="yes"/>
      <point x="546" y="778"/>
      <point x="542" y="741"/>
      <point x="542" y="705" type="curve" smooth="yes"/>
      <point x="542" y="592" type="line" smooth="yes"/>
      <point x="542" y="340"/>
      <point x="526" y="119"/>
      <point x="273" y="-12" type="curve"/>
      <point x="125" y="-12" type="line" smooth="yes"/>
      <point x="75" y="-12"/>
      <point x="73" y="190"/>
      <point x="73" y="256" type="curve" smooth="yes"/>
      <point x="73" y="471"/>
      <point x="79" y="686"/>
      <point x="79" y="901" type="curve" smooth="yes"/>
      <point x="79" y="1027"/>
      <point x="55" y="1184"/>
    </contour>
    <contour>
      <point x="216" y="141" type="curve" smooth="yes"/>
      <point x="216" y="92" type="line"/>
      <point x="420" y="92"/>
      <point x="438" y="480"/>
      <point x="438" y="612" type="curve" smooth="yes"/>
      <point x="438" y="784"/>
      <point x="432" y="1231"/>
      <point x="200" y="1258" type="curve"/>
      <point x="187" y="1188"/>
      <point x="185" y="1116"/>
      <point x="185" y="1045" type="curve" smooth="yes"/>
      <point x="185" y="743"/>
      <point x="216" y="443"/>
    </contour>
  </outline>
</glyph>
<glyph name="i" format="1">
  <advance width="499"/>
  <unicode hex="0069"/>
  <outline>
    <contour>
      <point x="296" y="185" type="line" smooth="yes"/>
      <point x="296" y="166"/>
      <point x="295" y="144"/>
      <point x="295" y="128" type="curve"/>
      <point x="322" y="128" type="line" smooth="yes"/>
      <point x="337" y="128"/>
      <point x="358" y="130"/>
      <point x="381" y="130" type="curve" smooth="yes"/>
      <point x="422" y="130"/>
      <point x="465" y="122"/>
      <point x="465" y="79" type="curve" smooth="yes"/>
      <point x="465" y="43"/>
      <point x="432" y="16"/>
      <point x="397" y="16" type="curve" smooth="yes"/>
      <point x="307" y="16" type="line" smooth="yes"/>
      <point x="261" y="16"/>
      <point x="214" y="16"/>
      <point x="188" y="20" type="curve"/>
      <point x="180" y="19"/>
      <point x="171" y="18"/>
      <point x="163" y="18" type="curve" smooth="yes"/>
      <point x="108" y="18"/>
      <point x="90" y="40"/>
      <point x="90" y="64" type="curve" smooth="yes"/>
      <point x="90" y="90"/>
      <point x="110" y="117"/>
      <point x="126" y="118" type="curve"/>
      <point x="184" y="118" type="line"/>
      <point x="185" y="127"/>
      <point x="188" y="136"/>
      <point x="188" y="145" type="curve" smooth="yes"/>
      <point x="188" y="290"/>
      <point x="174" y="435"/>
      <point x="174" y="580" type="curve" smooth="yes"/>
      <point x="174" y="732"/>
      <point x="185" y="884"/>
      <point x="185" y="1036" type="curve" smooth="yes"/>
      <point x="185" y="1109"/>
      <point x="182" y="1184"/>
      <point x="175" y="1256" type="curve"/>
      <point x="136" y="1256" type="line" smooth="yes"/>
      <point x="121" y="1256"/>
      <point x="105" y="1254"/>
      <point x="89" y="1254" type="curve" smooth="yes"/>
      <point x="55" y="1254"/>
      <point x="25" y="1262"/>
      <point x="25" y="1309" type="curve" smooth="yes"/>
      <point x="25" y="1353"/>
      <point x="87" y="1356"/>
      <point x="126" y="1356" type="curve" smooth="yes"/>
      <point x="370" y="1356" type="line" smooth="yes"/>
      <point x="431" y="1356"/>
      <point x="453" y="1335"/>
      <point x="453" y="1313" type="curve" smooth="yes"/>
      <point x="453" y="1288"/>
      <point x="426" y="1262"/>
      <point x="394" y="1262" type="curve" smooth="yes"/>
      <point x="289" y="1262" type="line"/>
      <point x="295" y="1199"/>
      <point x="297" y="1136"/>
      <point x="297" y="1072" type="curve" smooth="yes"/>
      <point x="297" y="942"/>
      <point x="286" y="811"/>
      <point x="286" y="681" type="curve" smooth="yes"/>
      <point x="286" y="536"/>
      <point x="296" y="391"/>
      <point x="296" y="246" type="curve" smooth="yes"/>
    </contour>
  </outline>
</glyph>
<glyph name="s" format="1">
  <advance width="445"/>
  <unicode hex="0073"/>
  <outline>
    <contour>
      <point x="150" y="1075" type="curve" smooth="yes"/>
      <point x="150" y="811"/>
      <point x="395" y="689"/>
      <point x="395" y="342" type="curve" smooth="yes"/>
      <point x="395" y="191"/>
      <point x="325" y="-19"/>
      <point x="141" y="-23" type="curve"/>
      <point x="141" y="-28" type="line"/>
      <point x="97" y="-22"/>
      <point x="55" y="3"/>
      <point x="49" y="51" type="curve"/>
      <point x="72" y="86" type="line"/>
      <point x="100" y="82"/>
      <point x="128" y="71"/>
      <point x="157" y="71" type="curve" smooth="yes"/>
      <point x="268" y="71"/>
      <point x="295" y="286"/>
      <point x="295" y="367" type="curve" smooth="yes"/>
      <point x="295" y="631"/>
      <point x="50" y="790"/>
      <point x="50" y="1086" type="curve" smooth="yes"/>
      <point x="50" y="1194"/>
      <point x="99" y="1381"/>
      <point x="235" y="1381" type="curve" smooth="yes"/>
      <point x="279" y="1381"/>
      <point x="336" y="1349"/>
      <point x="336" y="1300" type="curve" smooth="yes"/>
      <point x="336" y="1273"/>
      <point x="309" y="1261"/>
      <point x="286" y="1261" type="curve" smooth="yes"/>
      <point x="272" y="1261"/>
      <point x="255" y="1266"/>
      <point x="243" y="1273" type="curve"/>
      <point x="175" y="1271"/>
      <point x="150" y="1127"/>
    </contour>
  </outline>
</glyph>
<glyph name="w" format="1">
  <advance width="802"/>
  <unicode hex="0077"/>
  <outline>
    <contour>
      <point x="653" y="139" type="curve" smooth="yes"/>
      <point x="653" y="86"/>
      <point x="653" y="-69"/>
      <point x="574" y="-69" type="curve" smooth="yes"/>
      <point x="526" y="-69"/>
      <point x="515" y="-13"/>
      <point x="515" y="25" type="curve" smooth="yes"/>
      <point x="515" y="308"/>
      <point x="453" y="648"/>
      <point x="409" y="942" type="curve"/>
      <point x="405" y="903"/>
      <point x="402" y="865"/>
      <point x="402" y="826" type="curve" smooth="yes"/>
      <point x="402" y="700"/>
      <point x="353" y="-43"/>
      <point x="245" y="-43" type="curve" smooth="yes"/>
      <point x="99" y="-43"/>
      <point x="98" y="1142"/>
      <point x="31" y="1293" type="curve"/>
      <point x="42" y="1316"/>
      <point x="65" y="1329"/>
      <point x="90" y="1329" type="curve" smooth="yes"/>
      <point x="150" y="1329"/>
      <point x="156" y="1238"/>
      <point x="156" y="1195" type="curve" smooth="yes"/>
      <point x="156" y="888"/>
      <point x="236" y="589"/>
      <point x="247" y="283" type="curve"/>
      <point x="290" y="573"/>
      <point x="334" y="884"/>
      <point x="334" y="1186" type="curve"/>
      <point x="389" y="1210" type="line"/>
      <point x="419" y="1210"/>
      <point x="450" y="1194"/>
      <point x="450" y="1160" type="curve" smooth="yes"/>
      <point x="450" y="1143" type="line"/>
      <point x="531" y="871"/>
      <point x="531" y="586"/>
      <point x="572" y="307" type="curve"/>
      <point x="602" y="531"/>
      <point x="610" y="758"/>
      <point x="610" y="984" type="curve" smooth="yes"/>
      <point x="610" y="1087"/>
      <point x="641" y="1189"/>
      <point x="641" y="1292" type="curve"/>
      <point x="636" y="1305"/>
      <point x="634" y="1316"/>
      <point x="634" y="1327" type="curve" smooth="yes"/>
      <point x="634" y="1357"/>
      <point x="652" y="1377"/>
      <point x="697" y="1377" type="curve" smooth="yes"/>
      <point x="726" y="1377"/>
      <point x="749" y="1360"/>
      <point x="749" y="1329" type="curve" smooth="yes"/>
      <point x="749" y="1301"/>
      <point x="751" y="1272"/>
      <point x="744" y="1245" type="curve"/>
      <point x="744" y="1234" type="line"/>
      <point x="724" y="1173"/>
      <point x="716" y="1109"/>
      <point x="716" y="1046" type="curve" smooth="yes"/>
      <point x="716" y="896" type="line" smooth="yes"/>
      <point x="716" y="644"/>
      <point x="653" y="371"/>
    </contour>
  </outline>
</glyph>
<glyph name="braceright" format="1">
  <advance width="649"/>
  <unicode hex="007D"/>
  <outline>
    <contour>
      <point x="244" y="1495" type="curve" smooth="yes"/>
      <point x="407" y="1495"/>
      <point x="445" y="1394"/>
      <point x="446" y="1249" type="curve" smooth="yes"/>
      <point x="447" y="876" type="line" smooth="yes"/>
      <point x="447" y="712"/>
      <point x="576" y="821"/>
      <point x="576" y="731" type="curve" smooth="yes"/>
      <point x="576" y="630"/>
      <point x="447" y="745"/>
      <point x="447" y="581" type="curve" smooth="yes"/>
      <point x="447" y="538"/>
      <point x="455" y="421"/>
      <point x="455" y="330" type="curve" smooth="yes"/>
      <point x="455" y="279"/>
      <point x="453" y="236"/>
      <point x="444" y="221" type="curve"/>
      <point x="447" y="202"/>
      <point x="448" y="184"/>
      <point x="448" y="166" type="curve" smooth="yes"/>
      <point x="448" y="47"/>
      <point x="381" y="-48"/>
      <point x="244" y="-48" type="curve" smooth="yes"/>
      <point x="210" y="-48"/>
      <point x="101" y="-35"/>
      <point x="101" y="12" type="curve" smooth="yes"/>
      <point x="101" y="43"/>
      <point x="131" y="58"/>
      <point x="158" y="58" type="curve" smooth="yes"/>
      <point x="193" y="58"/>
      <point x="224" y="39"/>
      <point x="259" y="39" type="curve" smooth="yes"/>
      <point x="356" y="39"/>
      <point x="357" y="224"/>
      <point x="357" y="289" type="curve" smooth="yes"/>
      <point x="357" y="346"/>
      <point x="347" y="443"/>
      <point x="347" y="534" type="curve" smooth="yes"/>
      <point x="347" y="615"/>
      <point x="355" y="691"/>
      <point x="385" y="729" type="curve"/>
      <point x="353" y="770"/>
      <point x="348" y="825"/>
      <point x="348" y="875" type="curve" smooth="yes"/>
      <point x="348" y="915"/>
      <point x="358" y="1021"/>
      <point x="358" y="1127" type="curve" smooth="yes"/>
      <point x="358" y="1267"/>
      <point x="341" y="1408"/>
      <point x="259" y="1408" type="curve" smooth="yes"/>
      <point x="217" y="1408"/>
      <point x="180" y="1385"/>
      <point x="138" y="1385" type="curve" smooth="yes"/>
      <point x="126" y="1385"/>
      <point x="121" y="1422"/>
      <point x="121" y="1431" type="curve" smooth="yes"/>
      <point x="121" y="1483"/>
      <point x="206" y="1495"/>
    </contour>
  </outline>
</glyph>
<glyph name="sterling" format="1">
  <advance width="712"/>
  <unicode hex="00A3"/>
  <outline>
    <contour>
      <point x="652" y="146" type="curve" smooth="yes"/>
      <point x="683" y="146"/>
      <point x="707" y="123"/>
      <point x="707" y="96" type="curve" smooth="yes"/>
      <point x="707" y="59"/>
      <point x="658" y="27"/>
      <point x="559" y="27" type="curve" smooth="yes"/>
      <point x="450" y="27"/>
      <point x="382" y="57"/>
      <point x="278" y="68" type="curve"/>
      <point x="278" y="71" type="line"/>
      <point x="241" y="70"/>
      <point x="129" y="21"/>
      <point x="94" y="2" type="curve"/>
      <point x="94" y="6" type="line"/>
      <point x="69" y="8"/>
      <point x="36" y="23"/>
      <point x="36" y="53" type="curve" smooth="yes"/>
      <point x="36" y="123"/>
      <point x="123" y="125"/>
      <point x="165" y="158" type="curve" smooth="yes"/>
      <point x="212" y="194"/>
      <point x="227" y="325"/>
      <point x="227" y="382" type="curve" smooth="yes"/>
      <point x="227" y="559"/>
      <point x="161" y="725"/>
      <point x="120" y="894" type="curve"/>
      <point x="40" y="894"/>
      <point x="26" y="906"/>
      <point x="26" y="918" type="curve" smooth="yes"/>
      <point x="26" y="924" type="line" smooth="yes"/>
      <point x="26" y="943"/>
      <point x="29" y="966"/>
      <point x="103" y="966" type="curve"/>
      <point x="100" y="1057"/>
      <point x="78" y="1147"/>
      <point x="78" y="1238" type="curve" smooth="yes"/>
      <point x="78" y="1329"/>
      <point x="97" y="1632"/>
      <point x="263" y="1632" type="curve" smooth="yes"/>
      <point x="288" y="1632" type="line" smooth="yes"/>
      <point x="368" y="1632"/>
      <point x="455" y="1474"/>
      <point x="455" y="1403" type="curve" smooth="yes"/>
      <point x="455" y="1380"/>
      <point x="452" y="1359"/>
      <point x="423" y="1359" type="curve" smooth="yes"/>
      <point x="314" y="1359"/>
      <point x="363" y="1535"/>
      <point x="269" y="1535" type="curve" smooth="yes"/>
      <point x="202" y="1535"/>
      <point x="177" y="1340"/>
      <point x="177" y="1270" type="curve" smooth="yes"/>
      <point x="177" y="1243" type="line" smooth="yes"/>
      <point x="177" y="1154"/>
      <point x="178" y="1062"/>
      <point x="196" y="976" type="curve"/>
      <point x="265" y="976"/>
      <point x="332" y="979"/>
      <point x="401" y="979" type="curve" smooth="yes"/>
      <point x="427" y="979"/>
      <point x="453" y="957"/>
      <point x="453" y="928" type="curve" smooth="yes"/>
      <point x="453" y="909"/>
      <point x="360" y="910"/>
      <point x="217" y="900" type="curve"/>
      <point x="248" y="728"/>
      <point x="324" y="554"/>
      <point x="324" y="378" type="curve" smooth="yes"/>
      <point x="324" y="305"/>
      <point x="298" y="238"/>
      <point x="277" y="169" type="curve"/>
      <point x="367" y="162"/>
      <point x="452" y="125"/>
      <point x="542" y="125" type="curve" smooth="yes"/>
      <point x="581" y="125"/>
      <point x="615" y="146"/>
    </contour>
  </outline>
</glyph>
<glyph name="currency" format="1">
  <advance width="895"/>
  <unicode hex="00A4"/>
  <outline>
    <contour>
      <point x="679" y="251" type="curve"/>
      <point x="679" y="248" type="line"/>
      <point x="654" y="293" type="line"/>
      <point x="589" y="235"/>
      <point x="502" y="205"/>
      <point x="415" y="205" type="curve" smooth="yes"/>
      <point x="346" y="205"/>
      <point x="281" y="243"/>
      <point x="233" y="290" type="curve"/>
      <point x="216" y="253"/>
      <point x="196" y="201"/>
      <point x="147" y="201" type="curve" smooth="yes"/>
      <point x="103" y="201"/>
      <point x="83" y="236"/>
      <point x="83" y="276" type="curve" smooth="yes"/>
      <point x="83" y="315"/>
      <point x="148" y="360"/>
      <point x="169" y="392" type="curve"/>
      <point x="140" y="446"/>
      <point x="137" y="507"/>
      <point x="137" y="567" type="curve" smooth="yes"/>
      <point x="137" y="692"/>
      <point x="141" y="977"/>
      <point x="209" y="1078" type="curve"/>
      <point x="186" y="1119"/>
      <point x="112" y="1160"/>
      <point x="112" y="1209" type="curve" smooth="yes"/>
      <point x="112" y="1235"/>
      <point x="135" y="1255"/>
      <point x="160" y="1255" type="curve" smooth="yes"/>
      <point x="212" y="1255"/>
      <point x="241" y="1209"/>
      <point x="268" y="1172" type="curve"/>
      <point x="295" y="1202"/>
      <point x="356" y="1285"/>
      <point x="398" y="1285" type="curve" smooth="yes"/>
      <point x="477" y="1285"/>
      <point x="554" y="1259"/>
      <point x="620" y="1216" type="curve"/>
      <point x="654" y="1260"/>
      <point x="681" y="1351"/>
      <point x="749" y="1351" type="curve" smooth="yes"/>
      <point x="759" y="1351" type="line"/>
      <point x="802" y="1304" type="line"/>
      <point x="798" y="1241"/>
      <point x="707" y="1165"/>
      <point x="707" y="1141" type="curve" smooth="yes"/>
      <point x="707" y="1019"/>
      <point x="797" y="902"/>
      <point x="797" y="772" type="curve" smooth="yes"/>
      <point x="797" y="643"/>
      <point x="730" y="525"/>
      <point x="730" y="396" type="curve" smooth="yes"/>
      <point x="730" y="335"/>
      <point x="807" y="308"/>
      <point x="807" y="247" type="curve" smooth="yes"/>
      <point x="807" y="219"/>
      <point x="785" y="195"/>
      <point x="757" y="195" type="curve" smooth="yes"/>
      <point x="722" y="195"/>
      <point x="683" y="212"/>
    </contour>
    <contour>
      <point x="247" y="696" type="curve"/>
      <point x="250" y="696" type="line"/>
      <point x="251" y="687"/>
      <point x="252" y="678"/>
      <point x="252" y="669" type="curve" smooth="yes"/>
      <point x="252" y="641"/>
      <point x="247" y="614"/>
      <point x="247" y="585" type="curve" smooth="yes"/>
      <point x="247" y="527"/>
      <point x="254" y="462"/>
      <point x="301" y="421" type="curve"/>
      <point x="301" y="332"/>
      <point x="374" y="305"/>
      <point x="451" y="305" type="curve" smooth="yes"/>
      <point x="641" y="305"/>
      <point x="678" y="640"/>
      <point x="678" y="779" type="curve" smooth="yes"/>
      <point x="678" y="840"/>
      <point x="653" y="1027"/>
      <point x="617" y="1071" type="curve"/>
      <point x="588" y="1077"/>
      <point x="568" y="1103"/>
      <point x="565" y="1132" type="curve"/>
      <point x="535" y="1165"/>
      <point x="486" y="1181"/>
      <point x="442" y="1181" type="curve" smooth="yes"/>
      <point x="416" y="1181"/>
      <point x="351" y="1121"/>
      <point x="335" y="1100" type="curve"/>
      <point x="350" y="1086" type="line"/>
      <point x="350" y="1055"/>
      <point x="344" y="1009"/>
      <point x="303" y="1009" type="curve" smooth="yes"/>
      <point x="278" y="1009"/>
      <point x="247" y="774"/>
    </contour>
  </outline>
</glyph>
<glyph name="brokenbar" format="1">
  <advance width="325"/>
  <unicode hex="00A6"/>
  <outline>
    <contour>
      <point x="112" y="1020" type="curve" smooth="yes"/>
      <point x="112" y="1183"/>
      <point x="104" y="1348"/>
      <point x="104" y="1510" type="curve" smooth="yes"/>
      <point x="104" y="1556"/>
      <point x="127" y="1584"/>
      <point x="175" y="1584" type="curve" smooth="yes"/>
      <point x="213" y="1584"/>
      <point x="220" y="1481"/>
      <point x="220" y="1393" type="curve" smooth="yes"/>
      <point x="220" y="1346"/>
      <point x="218" y="1304"/>
      <point x="218" y="1285" type="curve" smooth="yes"/>
      <point x="215" y="877" type="line" smooth="yes"/>
      <point x="215" y="849"/>
      <point x="191" y="826"/>
      <point x="163" y="826" type="curve" smooth="yes"/>
      <point x="111" y="826"/>
      <point x="112" y="988"/>
    </contour>
    <contour>
      <point x="157" y="695" type="curve" smooth="yes"/>
      <point x="203" y="695"/>
      <point x="218" y="662"/>
      <point x="218" y="621" type="curve" smooth="yes"/>
      <point x="220" y="-16" type="line" smooth="yes"/>
      <point x="220" y="-50"/>
      <point x="208" y="-80"/>
      <point x="169" y="-80" type="curve" smooth="yes"/>
      <point x="141" y="-80"/>
      <point x="117" y="-57"/>
      <point x="117" y="-29" type="curve" smooth="yes"/>
      <point x="114" y="339" type="line"/>
      <point x="115" y="644" type="line" smooth="yes"/>
      <point x="115" y="668"/>
      <point x="131" y="695"/>
    </contour>
  </outline>
</glyph>
<glyph name="ordfeminine" format="1">
  <advance width="621"/>
  <unicode hex="00AA"/>
  <outline>
    <contour>
      <point x="570" y="160" type="line" smooth="yes"/>
      <point x="605" y="160"/>
      <point x="620" y="144"/>
      <point x="620" y="124" type="curve" smooth="yes"/>
      <point x="620" y="103"/>
      <point x="598" y="78"/>
      <point x="564" y="78" type="curve" smooth="yes"/>
      <point x="534" y="78"/>
      <point x="503" y="78"/>
      <point x="475" y="76" type="curve"/>
      <point x="348" y="76"/>
      <point x="220" y="66"/>
      <point x="93" y="66" type="curve" smooth="yes"/>
      <point x="49" y="66"/>
      <point x="14" y="89"/>
      <point x="14" y="110" type="curve" smooth="yes"/>
      <point x="14" y="138"/>
      <point x="36" y="160"/>
      <point x="64" y="160" type="curve" smooth="yes"/>
    </contour>
    <contour>
      <point x="451" y="645" type="curve"/>
      <point x="429" y="755"/>
      <point x="413" y="967"/>
      <point x="380" y="1184" type="curve"/>
      <point x="341" y="1019"/>
      <point x="286" y="777"/>
      <point x="270" y="678" type="curve"/>
      <point x="305" y="655"/>
      <point x="407" y="648"/>
    </contour>
    <contour>
      <point x="619" y="311" type="curve" smooth="yes"/>
      <point x="619" y="309" type="line" smooth="yes"/>
      <point x="619" y="285"/>
      <point x="608" y="260"/>
      <point x="585" y="251" type="curve"/>
      <point x="536" y="251"/>
      <point x="494" y="260"/>
      <point x="494" y="319" type="curve" smooth="yes"/>
      <point x="494" y="406"/>
      <point x="464" y="572"/>
      <point x="464" y="572" type="curve"/>
      <point x="262" y="602" type="line"/>
      <point x="218" y="444"/>
      <point x="237" y="259"/>
      <point x="147" y="259" type="curve" smooth="yes"/>
      <point x="117" y="259"/>
      <point x="82" y="281"/>
      <point x="82" y="314" type="curve" smooth="yes"/>
      <point x="82" y="554"/>
      <point x="217" y="859"/>
      <point x="252" y="1100" type="curve" smooth="yes"/>
      <point x="261" y="1169"/>
      <point x="259" y="1317"/>
      <point x="296" y="1373" type="curve"/>
      <point x="365" y="1373" type="line" smooth="yes"/>
      <point x="497" y="1373"/>
      <point x="619" y="431"/>
    </contour>
  </outline>
</glyph>
<glyph name="degree" format="1">
  <advance width="728"/>
  <unicode hex="00B0"/>
  <outline>
    <contour>
      <point x="101" y="731" type="curve" smooth="yes"/>
      <point x="101" y="867"/>
      <point x="192" y="970"/>
      <point x="333" y="970" type="curve" smooth="yes"/>
      <point x="570" y="970"/>
      <point x="627" y="821"/>
      <point x="627" y="733" type="curve" smooth="yes"/>
      <point x="627" y="649"/>
      <point x="579" y="438"/>
      <point x="334" y="438" type="curve" smooth="yes"/>
      <point x="143" y="438"/>
      <point x="101" y="617"/>
    </contour>
    <contour>
      <point x="343" y="901" type="curve" smooth="yes"/>
      <point x="213" y="901"/>
      <point x="178" y="773"/>
      <point x="178" y="665" type="curve" smooth="yes"/>
      <point x="178" y="607"/>
      <point x="252" y="515"/>
      <point x="342" y="515" type="curve" smooth="yes"/>
      <point x="524" y="515"/>
      <point x="559" y="668"/>
      <point x="559" y="729" type="curve" smooth="yes"/>
      <point x="559" y="792"/>
      <point x="517" y="901"/>
    </contour>
  </outline>
</glyph>
<glyph name="ordmasculine" format="1">
  <advance width="621"/>
  <unicode hex="00BA"/>
  <outline>
    <contour>
      <point x="584" y="908" type="curve" smooth="yes"/>
      <point x="584" y="893" type="line" smooth="yes"/>
      <point x="584" y="816"/>
      <point x="588" y="738"/>
      <point x="588" y="661" type="curve" smooth="yes"/>
      <point x="588" y="539"/>
      <point x="573" y="269"/>
      <point x="315" y="269" type="curve" smooth="yes"/>
      <point x="82" y="269"/>
      <point x="51" y="584"/>
      <point x="51" y="736" type="curve" smooth="yes"/>
      <point x="51" y="765"/>
      <point x="49" y="817"/>
      <point x="49" y="880" type="curve" smooth="yes"/>
      <point x="49" y="1078"/>
      <point x="66" y="1378"/>
      <point x="204" y="1378" type="curve" smooth="yes"/>
      <point x="490" y="1378"/>
      <point x="584" y="1164"/>
    </contour>
    <contour>
      <point x="282" y="1269" type="curve" smooth="yes"/>
      <point x="184" y="1269"/>
      <point x="170" y="1157"/>
      <point x="170" y="1057" type="curve" smooth="yes"/>
      <point x="170" y="1042"/>
      <point x="172" y="1027"/>
      <point x="172" y="1016" type="curve" smooth="yes"/>
      <point x="172" y="953"/>
      <point x="162" y="890"/>
      <point x="162" y="827" type="curve" smooth="yes"/>
      <point x="162" y="758"/>
      <point x="173" y="384"/>
      <point x="307" y="384" type="curve" smooth="yes"/>
      <point x="464" y="384"/>
      <point x="478" y="612"/>
      <point x="478" y="674" type="curve" smooth="yes"/>
      <point x="478" y="713"/>
      <point x="479" y="759"/>
      <point x="479" y="808" type="curve" smooth="yes"/>
      <point x="479" y="1015"/>
      <point x="462" y="1269"/>
    </contour>
    <contour>
      <point x="570" y="160" type="line" smooth="yes"/>
      <point x="605" y="160"/>
      <point x="620" y="144"/>
      <point x="620" y="124" type="curve" smooth="yes"/>
      <point x="620" y="103"/>
      <point x="598" y="78"/>
      <point x="564" y="78" type="curve" smooth="yes"/>
      <point x="534" y="78"/>
      <point x="503" y="76"/>
      <point x="475" y="76" type="curve" smooth="yes"/>
      <point x="348" y="76"/>
      <point x="220" y="66"/>
      <point x="93" y="66" type="curve" smooth="yes"/>
      <point x="49" y="66"/>
      <point x="14" y="89"/>
      <point x="14" y="110" type="curve" smooth="yes"/>
      <point x="14" y="138"/>
      <point x="36" y="160"/>
      <point x="64" y="160" type="curve" smooth="yes"/>
    </contour>
  </outline>
</glyph>
<glyph name="guillemotright" format="1">
  <advance width="682"/>
  <unicode hex="00BB"/>
  <outline>
    <contour>
      <point x="74" y="-19" type="line" smooth="yes"/>
      <point x="70" y="-19" type="line" smooth="yes"/>
      <point x="57" y="-19"/>
      <point x="45" y="-23"/>
      <point x="32" y="-23" type="curve" smooth="yes"/>
      <point x="-5" y="-23"/>
      <point x="-21" y="19"/>
      <point x="-22" y="49" type="curve"/>
      <point x="3" y="69" type="line"/>
      <point x="39" y="136"/>
      <point x="313" y="680"/>
      <point x="313" y="702" type="curve" smooth="yes"/>
      <point x="313" y="908"/>
      <point x="58" y="1202"/>
      <point x="56" y="1411" type="curve"/>
      <point x="101" y="1446" type="line"/>
      <point x="111" y="1444" type="line"/>
      <point x="185" y="1410"/>
      <point x="187" y="1324"/>
      <point x="207" y="1255" type="curve" smooth="yes"/>
      <point x="245" y="1123"/>
      <point x="428" y="803"/>
      <point x="431" y="698" type="curve"/>
    </contour>
    <contour>
      <point x="357" y="1490" type="curve" smooth="yes"/>
      <point x="361" y="1490"/>
      <point x="368" y="1487"/>
      <point x="372" y="1486" type="curve"/>
      <point x="375" y="1486" type="line"/>
      <point x="375" y="1484" type="line"/>
      <point x="376" y="1485" type="line"/>
      <point x="404" y="1457"/>
      <point x="433" y="1402"/>
      <point x="438" y="1363" type="curve"/>
      <point x="476" y="1264"/>
      <point x="698" y="751"/>
      <point x="698" y="700" type="curve" smooth="yes"/>
      <point x="698" y="610"/>
      <point x="339" y="-56"/>
      <point x="295" y="-56" type="curve" smooth="yes"/>
      <point x="269" y="-56"/>
      <point x="230" y="-43"/>
      <point x="230" y="-10" type="curve" smooth="yes"/>
      <point x="230" y="68"/>
      <point x="554" y="528"/>
      <point x="588" y="689" type="curve"/>
      <point x="473" y="928"/>
      <point x="441" y="1211"/>
      <point x="292" y="1433" type="curve"/>
      <point x="295" y="1467"/>
      <point x="323" y="1490"/>
    </contour>
  </outline>
</glyph>
<glyph name="Eth" format="1">
  <advance width="810"/>
  <unicode hex="00D0"/>
  <outline>
    <contour>
      <point x="168" y="-5" type="curve" smooth="yes"/>
      <point x="126" y="-5"/>
      <point x="68" y="14"/>
      <point x="68" y="65" type="curve"/>
      <point x="113" y="112"/>
      <point x="113" y="244"/>
      <point x="113" y="306" type="curve" smooth="yes"/>
      <point x="113" y="472"/>
      <point x="93" y="637"/>
      <point x="82" y="802" type="curve"/>
      <point x="58" y="798"/>
      <point x="33" y="795"/>
      <point x="8" y="795" type="curve" smooth="yes"/>
      <point x="-25" y="795"/>
      <point x="-44" y="824"/>
      <point x="-44" y="854" type="curve" smooth="yes"/>
      <point x="-44" y="906"/>
      <point x="34" y="914"/>
      <point x="76" y="914" type="curve"/>
      <point x="75" y="937"/>
      <point x="75" y="959"/>
      <point x="75" y="982" type="curve" smooth="yes"/>
      <point x="75" y="1055"/>
      <point x="81" y="1131"/>
      <point x="81" y="1206" type="curve" smooth="yes"/>
      <point x="81" y="1308"/>
      <point x="36" y="1400"/>
      <point x="36" y="1481" type="curve" smooth="yes"/>
      <point x="36" y="1548"/>
      <point x="135" y="1552"/>
      <point x="193" y="1552" type="curve" smooth="yes"/>
      <point x="224" y="1552" type="line" smooth="yes"/>
      <point x="587" y="1552"/>
      <point x="593" y="1023"/>
      <point x="593" y="868" type="curve" smooth="yes"/>
      <point x="593" y="773" type="line"/>
      <point x="582" y="754"/>
      <point x="593" y="733"/>
      <point x="593" y="711" type="curve" smooth="yes"/>
      <point x="593" y="503"/>
      <point x="419" y="-5"/>
    </contour>
    <contour>
      <point x="190" y="814" type="curve"/>
      <point x="201" y="646"/>
      <point x="211" y="478"/>
      <point x="211" y="310" type="curve" smooth="yes"/>
      <point x="211" y="114" type="line"/>
      <point x="428" y="254"/>
      <point x="488" y="615"/>
      <point x="488" y="854" type="curve" smooth="yes"/>
      <point x="488" y="1061"/>
      <point x="444" y="1429"/>
      <point x="162" y="1429" type="curve"/>
      <point x="162" y="1427" type="line" smooth="yes"/>
      <point x="162" y="1259"/>
      <point x="172" y="1091"/>
      <point x="183" y="924" type="curve"/>
      <point x="238" y="931"/>
      <point x="292" y="940"/>
      <point x="347" y="940" type="curve" smooth="yes"/>
      <point x="389" y="940"/>
      <point x="412" y="896"/>
      <point x="414" y="860" type="curve"/>
      <point x="380" y="819" type="line"/>
      <point x="317" y="819"/>
      <point x="253" y="818"/>
    </contour>
  </outline>
</glyph>
<glyph name="Dcroat" format="1">
  <advance width="653"/>
  <unicode hex="0110"/>
  <outline>
    <contour>
      <point x="371" y="791" type="curve" smooth="yes"/>
      <point x="371" y="754"/>
      <point x="335" y="746"/>
      <point x="305" y="746" type="curve" smooth="yes"/>
      <point x="289" y="746"/>
      <point x="246" y="743"/>
      <point x="195" y="742" type="curve"/>
      <point x="204" y="598"/>
      <point x="211" y="454"/>
      <point x="211" y="310" type="curve" smooth="yes"/>
      <point x="211" y="114" type="line"/>
      <point x="428" y="254"/>
      <point x="488" y="615"/>
      <point x="488" y="854" type="curve" smooth="yes"/>
      <point x="488" y="1061"/>
      <point x="444" y="1429"/>
      <point x="162" y="1429" type="curve"/>
      <point x="162" y="1427" type="line" smooth="yes"/>
      <point x="163" y="1233"/>
      <point x="175" y="1040"/>
      <point x="188" y="847" type="curve"/>
      <point x="199" y="847" type="line" smooth="yes"/>
      <point x="286" y="847"/>
      <point x="371" y="831"/>
    </contour>
    <contour>
      <point x="168" y="-5" type="curve" smooth="yes"/>
      <point x="126" y="-5"/>
      <point x="68" y="14"/>
      <point x="68" y="65" type="curve"/>
      <point x="113" y="112"/>
      <point x="113" y="244"/>
      <point x="113" y="306" type="curve" smooth="yes"/>
      <point x="113" y="453"/>
      <point x="97" y="599"/>
      <point x="86" y="744" type="curve"/>
      <point x="3" y="748"/>
      <point x="-71" y="761"/>
      <point x="-71" y="798" type="curve" smooth="yes"/>
      <point x="-71" y="839"/>
      <point x="-10" y="842"/>
      <point x="19" y="842" type="curve" smooth="yes"/>
      <point x="29" y="842"/>
      <point x="51" y="842"/>
      <point x="79" y="843" type="curve"/>
      <point x="76" y="889"/>
      <point x="75" y="936"/>
      <point x="75" y="982" type="curve" smooth="yes"/>
      <point x="75" y="1055"/>
      <point x="81" y="1131"/>
      <point x="81" y="1206" type="curve" smooth="yes"/>
      <point x="81" y="1308"/>
      <point x="36" y="1400"/>
      <point x="36" y="1481" type="curve" smooth="yes"/>
      <point x="36" y="1548"/>
      <point x="135" y="1552"/>
      <point x="193" y="1552" type="curve" smooth="yes"/>
      <point x="224" y="1552" type="line" smooth="yes"/>
      <point x="587" y="1552"/>
      <point x="593" y="1023"/>
      <point x="593" y="868" type="curve" smooth="yes"/>
      <point x="593" y="773" type="line"/>
      <point x="582" y="754"/>
      <point x="593" y="733"/>
      <point x="593" y="711" type="curve" smooth="yes"/>
      <point x="593" y="503"/>
      <point x="419" y="-5"/>
    </contour>
  </outline>
</glyph>
<glyph name="Lslash" format="1">
  <advance width="430"/>
  <unicode hex="0141"/>
  <outline>
    <contour>
      <point x="404" y="897" type="curve" smooth="yes"/>
      <point x="404" y="842"/>
      <point x="299" y="813"/>
      <point x="191" y="797" type="curve"/>
      <point x="191" y="795" type="line" smooth="yes"/>
      <point x="191" y="773"/>
      <point x="194" y="752"/>
      <point x="194" y="730" type="curve" smooth="yes"/>
      <point x="194" y="723"/>
      <point x="194" y="717"/>
      <point x="193" y="710" type="curve" smooth="yes"/>
      <point x="193" y="701" type="line"/>
      <point x="201" y="523"/>
      <point x="201" y="345"/>
      <point x="201" y="167" type="curve" smooth="yes"/>
      <point x="201" y="115" type="line"/>
      <point x="357" y="115" type="line"/>
      <point x="379" y="100"/>
      <point x="401" y="83"/>
      <point x="401" y="54" type="curve" smooth="yes"/>
      <point x="401" y="25"/>
      <point x="380" y="-4"/>
      <point x="349" y="-4" type="curve" smooth="yes"/>
      <point x="339" y="-4"/>
      <point x="327" y="1"/>
      <point x="318" y="3" type="curve"/>
      <point x="305" y="0"/>
      <point x="292" y="-1"/>
      <point x="279" y="-1" type="curve" smooth="yes"/>
      <point x="257" y="-1"/>
      <point x="235" y="2"/>
      <point x="213" y="2" type="curve" smooth="yes"/>
      <point x="196" y="2"/>
      <point x="170" y="5"/>
      <point x="145" y="5" type="curve" smooth="yes"/>
      <point x="116" y="5"/>
      <point x="86" y="22"/>
      <point x="86" y="42" type="curve" smooth="yes"/>
      <point x="86" y="73"/>
      <point x="99" y="101"/>
      <point x="99" y="132" type="curve" smooth="yes"/>
      <point x="99" y="344"/>
      <point x="90" y="556"/>
      <point x="81" y="768" type="curve"/>
      <point x="57" y="757"/>
      <point x="38" y="754"/>
      <point x="29" y="754" type="curve" smooth="yes"/>
      <point x="-4" y="754"/>
      <point x="-38" y="774"/>
      <point x="-38" y="803" type="curve" smooth="yes"/>
      <point x="-38" y="838"/>
      <point x="15" y="860"/>
      <point x="76" y="873" type="curve"/>
      <point x="67" y="1092"/>
      <point x="58" y="1310"/>
      <point x="58" y="1529" type="curve" smooth="yes"/>
      <point x="58" y="1556"/>
      <point x="83" y="1571"/>
      <point x="108" y="1571" type="curve" smooth="yes"/>
      <point x="141" y="1571"/>
      <point x="170" y="1546"/>
      <point x="170" y="1512" type="curve" smooth="yes"/>
      <point x="170" y="1309"/>
      <point x="185" y="1106"/>
      <point x="190" y="904" type="curve"/>
      <point x="270" y="939"/>
      <point x="338" y="949"/>
      <point x="366" y="949" type="curve" smooth="yes"/>
      <point x="384" y="949"/>
      <point x="404" y="929"/>
    </contour>
  </outline>
</glyph>
<glyph name="Eng" format="1">
  <advance width="737"/>
  <unicode hex="014A"/>
  <outline>
    <contour>
      <point x="542" y="-113" type="curve" smooth="yes"/>
      <point x="542" y="-65"/>
      <point x="543" y="-17"/>
      <point x="543" y="32" type="curve"/>
      <point x="450" y="234"/>
      <point x="274" y="887"/>
      <point x="171" y="1298" type="curve"/>
      <point x="171" y="626" type="line" smooth="yes"/>
      <point x="171" y="431"/>
      <point x="200" y="237"/>
      <point x="200" y="42" type="curve" smooth="yes"/>
      <point x="200" y="16"/>
      <point x="161" y="-2"/>
      <point x="128" y="-2" type="curve" smooth="yes"/>
      <point x="104" y="-2"/>
      <point x="83" y="7"/>
      <point x="83" y="30" type="curve" smooth="yes"/>
      <point x="83" y="65"/>
      <point x="93" y="109"/>
      <point x="93" y="177" type="curve" smooth="yes"/>
      <point x="93" y="371"/>
      <point x="67" y="688"/>
      <point x="67" y="812" type="curve" smooth="yes"/>
      <point x="67" y="1073" type="line" smooth="yes"/>
      <point x="67" y="1198"/>
      <point x="81" y="1324"/>
      <point x="81" y="1449" type="curve" smooth="yes"/>
      <point x="81" y="1462" type="line" smooth="yes"/>
      <point x="81" y="1508"/>
      <point x="89" y="1564"/>
      <point x="126" y="1564" type="curve" smooth="yes"/>
      <point x="250" y="1564"/>
      <point x="539" y="228"/>
      <point x="540" y="225" type="curve"/>
      <point x="540" y="463"/>
      <point x="548" y="701"/>
      <point x="548" y="939" type="curve" smooth="yes"/>
      <point x="548" y="1545" type="line"/>
      <point x="556" y="1580"/>
      <point x="582" y="1596"/>
      <point x="615" y="1596" type="curve" smooth="yes"/>
      <point x="660" y="1596"/>
      <point x="670" y="1553"/>
      <point x="670" y="1516" type="curve" smooth="yes"/>
      <point x="670" y="1504" type="line"/>
      <point x="661" y="1485"/>
      <point x="645" y="1465"/>
      <point x="645" y="1444" type="curve" smooth="yes"/>
      <point x="645" y="42" type="line" smooth="yes"/>
      <point x="645" y="-271"/>
      <point x="620" y="-236"/>
      <point x="434" y="-388" type="curve"/>
      <point x="394" y="-388"/>
      <point x="360" y="-369"/>
      <point x="360" y="-325" type="curve" smooth="yes"/>
      <point x="360" y="-226"/>
      <point x="542" y="-240"/>
    </contour>
  </outline>
</glyph>
<glyph name="uni0237" format="1">
  <advance width="520"/>
  <unicode hex="0237"/>
  <outline>
    <contour>
      <point x="352" y="158" type="line"/>
      <point x="276" y="33"/>
      <point x="364" y="-254"/>
      <point x="106" y="-254" type="curve" smooth="yes"/>
      <point x="82" y="-254" type="line"/>
      <point x="21" y="-193" type="line"/>
      <point x="19" y="-174" type="line"/>
      <point x="19" y="-133"/>
      <point x="146" y="-64"/>
      <point x="181" y="-46" type="curve"/>
      <point x="227" y="8"/>
      <point x="240" y="117"/>
      <point x="240" y="187" type="curve" smooth="yes"/>
      <point x="240" y="536"/>
      <point x="222" y="884"/>
      <point x="222" y="1233" type="curve"/>
      <point x="217" y="1242" type="line"/>
      <point x="175" y="1247"/>
      <point x="60" y="1252"/>
      <point x="60" y="1312" type="curve" smooth="yes"/>
      <point x="60" y="1342"/>
      <point x="103" y="1359"/>
      <point x="127" y="1359" type="curve" smooth="yes"/>
      <point x="187" y="1359"/>
      <point x="492" y="1327"/>
      <point x="492" y="1253" type="curve" smooth="yes"/>
      <point x="492" y="1222"/>
      <point x="464" y="1205"/>
      <point x="436" y="1205" type="curve" smooth="yes"/>
      <point x="401" y="1205"/>
      <point x="367" y="1219"/>
      <point x="332" y="1225" type="curve"/>
      <point x="331" y="1208" type="line"/>
      <point x="331" y="933"/>
      <point x="352" y="657"/>
      <point x="352" y="382" type="curve" smooth="yes"/>
    </contour>
  </outline>
</glyph>
<glyph name="circumflex" format="1">
  <advance width="516"/>
  <unicode hex="02C6"/>
  <outline>
    <contour>
      <point x="170" y="931" type="line" smooth="yes"/>
      <point x="166" y="922"/>
      <point x="155" y="917"/>
      <point x="141" y="917" type="curve" smooth="yes"/>
      <point x="118" y="917"/>
      <point x="89" y="930"/>
      <point x="89" y="957" type="curve" smooth="yes"/>
      <point x="89" y="963"/>
      <point x="90" y="969"/>
      <point x="93" y="976" type="curve" smooth="yes"/>
      <point x="200" y="1232"/>
      <point x="215" y="1319"/>
      <point x="290" y="1319" type="curve" smooth="yes"/>
      <point x="342" y="1319"/>
      <point x="376" y="1126"/>
      <point x="423" y="964" type="curve" smooth="yes"/>
      <point x="425" y="957"/>
      <point x="426" y="951"/>
      <point x="426" y="946" type="curve" smooth="yes"/>
      <point x="426" y="916"/>
      <point x="400" y="903"/>
      <point x="379" y="903" type="curve" smooth="yes"/>
      <point x="366" y="903"/>
      <point x="356" y="908"/>
      <point x="353" y="917" type="curve" smooth="yes"/>
      <point x="273" y="1193" type="line"/>
    </contour>
  </outline>
</glyph>
<glyph name="breve" format="1">
  <advance width="576"/>
  <unicode hex="02D8"/>
  <outline>
    <contour>
      <point x="458" y="1032" type="line"/>
      <point x="458" y="1031" type="line"/>
      <point x="421" y="945"/>
      <point x="395" y="867"/>
      <point x="286" y="867" type="curve" smooth="yes"/>
      <point x="159" y="867"/>
      <point x="114" y="992"/>
      <point x="114" y="1100" type="curve" smooth="yes"/>
      <point x="114" y="1110" type="line"/>
      <point x="152" y="1142" type="line"/>
      <point x="223" y="1142"/>
      <point x="204" y="1001"/>
      <point x="260" y="962" type="curve"/>
      <point x="304" y="962" type="line" smooth="yes"/>
      <point x="325" y="962"/>
      <point x="350" y="1025"/>
      <point x="350" y="1043" type="curve" smooth="yes"/>
      <point x="350" y="1088"/>
      <point x="350" y="1133"/>
      <point x="408" y="1133" type="curve" smooth="yes"/>
      <point x="436" y="1133"/>
      <point x="462" y="1110"/>
      <point x="462" y="1081" type="curve" smooth="yes"/>
      <point x="462" y="1075"/>
      <point x="456" y="1055"/>
      <point x="454" y="1048" type="curve"/>
    </contour>
  </outline>
</glyph>
<glyph name="tilde" format="1">
  <advance width="675"/>
  <unicode hex="02DC"/>
  <outline>
    <contour>
      <point x="509" y="1223" type="curve" smooth="yes"/>
      <point x="556" y="1223"/>
      <point x="576" y="1194"/>
      <point x="576" y="1170" type="curve" smooth="yes"/>
      <point x="576" y="1099"/>
      <point x="515" y="1038"/>
      <point x="444" y="1038" type="curve" smooth="yes"/>
      <point x="285" y="1038"/>
      <point x="307" y="1125"/>
      <point x="226" y="1125" type="curve"/>
      <point x="178" y="1107"/>
      <point x="227" y="1065"/>
      <point x="173" y="1046" type="curve"/>
      <point x="136" y="1046"/>
      <point x="99" y="1063"/>
      <point x="99" y="1105" type="curve" smooth="yes"/>
      <point x="99" y="1167"/>
      <point x="152" y="1224"/>
      <point x="247" y="1224" type="curve" smooth="yes"/>
      <point x="296" y="1224"/>
      <point x="378" y="1141"/>
      <point x="420" y="1141" type="curve" smooth="yes"/>
      <point x="479" y="1141"/>
      <point x="449" y="1223"/>
    </contour>
  </outline>
</glyph>
<glyph name="endash" format="1">
  <advance width="924"/>
  <unicode hex="2013"/>
  <outline>
    <contour>
      <point x="332" y="737" type="line" smooth="yes"/>
      <point x="361" y="737"/>
      <point x="441" y="741"/>
      <point x="527" y="741" type="curve" smooth="yes"/>
      <point x="660" y="741"/>
      <point x="808" y="731"/>
      <point x="808" y="683" type="curve" smooth="yes"/>
      <point x="808" y="654"/>
      <point x="788" y="636"/>
      <point x="760" y="636" type="curve" smooth="yes"/>
      <point x="572" y="636"/>
      <point x="385" y="646"/>
      <point x="197" y="646" type="curve" smooth="yes"/>
      <point x="166" y="646"/>
      <point x="115" y="649"/>
      <point x="115" y="691" type="curve" smooth="yes"/>
      <point x="115" y="719"/>
      <point x="133" y="737"/>
      <point x="161" y="737" type="curve" smooth="yes"/>
    </contour>
  </outline>
</glyph>
<glyph name="emdash" format="1">
  <advance width="1162"/>
  <unicode hex="2014"/>
  <outline>
    <contour>
      <point x="647" y="779" type="line" smooth="yes"/>
      <point x="669" y="779"/>
      <point x="731" y="782"/>
      <point x="799" y="782" type="curve" smooth="yes"/>
      <point x="910" y="782"/>
      <point x="1038" y="773"/>
      <point x="1038" y="725" type="curve" smooth="yes"/>
      <point x="1038" y="683"/>
      <point x="953" y="673"/>
      <point x="866" y="673" type="curve" smooth="yes"/>
      <point x="793" y="673"/>
      <point x="720" y="680"/>
      <point x="693" y="680" type="curve" smooth="yes"/>
      <point x="325" y="677" type="line" smooth="yes"/>
      <point x="307" y="677"/>
      <point x="278" y="674"/>
      <point x="247" y="674" type="curve" smooth="yes"/>
      <point x="188" y="674"/>
      <point x="124" y="683"/>
      <point x="124" y="733" type="curve" smooth="yes"/>
      <point x="124" y="761"/>
      <point x="142" y="779"/>
      <point x="170" y="779" type="curve" smooth="yes"/>
    </contour>
  </outline>
</glyph>
<glyph name="quoteleft" format="1">
  <advance width="354"/>
  <unicode hex="2018"/>
  <outline>
    <contour>
      <point x="91" y="1081" type="curve" smooth="yes"/>
      <point x="78" y="1081"/>
      <point x="70" y="1097"/>
      <point x="70" y="1126" type="curve" smooth="yes"/>
      <point x="70" y="1307"/>
      <point x="205" y="1577"/>
      <point x="262" y="1577" type="curve" smooth="yes"/>
      <point x="277" y="1577"/>
      <point x="284" y="1561"/>
      <point x="284" y="1536" type="curve" smooth="yes"/>
      <point x="284" y="1433"/>
      <point x="211" y="1081"/>
    </contour>
  </outline>
</glyph>
<glyph name="quotedblright" format="1">
  <advance width="560"/>
  <unicode hex="201D"/>
  <outline>
    <contour>
      <point x="521" y="1578" type="curve" smooth="yes"/>
      <point x="534" y="1578"/>
      <point x="542" y="1562"/>
      <point x="542" y="1533" type="curve" smooth="yes"/>
      <point x="542" y="1352"/>
      <point x="407" y="1082"/>
      <point x="350" y="1082" type="curve" smooth="yes"/>
      <point x="335" y="1082"/>
      <point x="328" y="1098"/>
      <point x="328" y="1123" type="curve"/>
      <point x="388" y="1377"/>
      <point x="376" y="1578"/>
    </contour>
    <contour>
      <point x="87" y="1081" type="curve"/>
      <point x="74" y="1084"/>
      <point x="69" y="1098"/>
      <point x="69" y="1119" type="curve" smooth="yes"/>
      <point x="69" y="1167"/>
      <point x="141" y="1568"/>
      <point x="238" y="1568" type="curve" smooth="yes"/>
      <point x="266" y="1568"/>
      <point x="275" y="1547"/>
      <point x="275" y="1523" type="curve" smooth="yes"/>
      <point x="275" y="1345"/>
      <point x="166" y="1081"/>
    </contour>
  </outline>
</glyph>
<glyph name="guilsinglleft" format="1">
  <advance width="524"/>
  <unicode hex="2039"/>
  <outline>
    <contour>
      <point x="491" y="49" type="line"/>
      <point x="489" y="19"/>
      <point x="474" y="-22"/>
      <point x="437" y="-22" type="curve" smooth="yes"/>
      <point x="422" y="-22"/>
      <point x="408" y="-19"/>
      <point x="393" y="-18" type="curve"/>
      <point x="252" y="197"/>
      <point x="149" y="465"/>
      <point x="37" y="698" type="curve"/>
      <point x="40" y="798"/>
      <point x="223" y="1125"/>
      <point x="261" y="1255" type="curve" smooth="yes"/>
      <point x="272" y="1293"/>
      <point x="299" y="1447"/>
      <point x="360" y="1447" type="curve" smooth="yes"/>
      <point x="362" y="1447"/>
      <point x="364" y="1446"/>
      <point x="367" y="1446" type="curve"/>
      <point x="412" y="1411" type="line"/>
      <point x="385" y="1193"/>
      <point x="154" y="869"/>
      <point x="154" y="702" type="curve" smooth="yes"/>
      <point x="154" y="679"/>
      <point x="428" y="135"/>
      <point x="465" y="69" type="curve"/>
    </contour>
  </outline>
</glyph>
<glyph name="trademark" format="1">
  <advance width="1037"/>
  <unicode hex="2122"/>
  <outline>
    <contour>
      <point x="228" y="787" type="line" smooth="yes"/>
      <point x="228" y="924"/>
      <point x="218" y="1061"/>
      <point x="218" y="1198" type="curve" smooth="yes"/>
      <point x="218" y="1266"/>
      <point x="224" y="1332"/>
      <point x="224" y="1400" type="curve" smooth="yes"/>
      <point x="224" y="1428"/>
      <point x="223" y="1456"/>
      <point x="220" y="1484" type="curve"/>
      <point x="202" y="1482"/>
      <point x="163" y="1475"/>
      <point x="126" y="1475" type="curve" smooth="yes"/>
      <point x="84" y="1475"/>
      <point x="44" y="1484"/>
      <point x="44" y="1520" type="curve" smooth="yes"/>
      <point x="44" y="1533" type="line"/>
      <point x="67" y="1574" type="line"/>
      <point x="172" y="1583"/>
      <point x="277" y="1595"/>
      <point x="382" y="1595" type="curve" smooth="yes"/>
      <point x="404" y="1595"/>
      <point x="425" y="1591"/>
      <point x="447" y="1591" type="curve"/>
      <point x="486" y="1552" type="line"/>
      <point x="486" y="1547" type="line"/>
      <point x="489" y="1574"/>
      <point x="534" y="1616"/>
      <point x="561" y="1616" type="curve" smooth="yes"/>
      <point x="588" y="1616"/>
      <point x="606" y="1594"/>
      <point x="622" y="1575" type="curve"/>
      <point x="619" y="1565"/>
      <point x="618" y="1554"/>
      <point x="618" y="1542" type="curve" smooth="yes"/>
      <point x="618" y="1433"/>
      <point x="704" y="1229"/>
      <point x="717" y="1129" type="curve"/>
      <point x="764" y="1259"/>
      <point x="800" y="1393"/>
      <point x="830" y="1528" type="curve" smooth="yes"/>
      <point x="841" y="1576"/>
      <point x="846" y="1639"/>
      <point x="910" y="1639" type="curve" smooth="yes"/>
      <point x="939" y="1639"/>
      <point x="966" y="1617"/>
      <point x="966" y="1587" type="curve" smooth="yes"/>
      <point x="966" y="1442"/>
      <point x="944" y="1298"/>
      <point x="944" y="1153" type="curve" smooth="yes"/>
      <point x="944" y="1031"/>
      <point x="958" y="908"/>
      <point x="958" y="786" type="curve"/>
      <point x="959" y="793" type="line" smooth="yes"/>
      <point x="959" y="785" type="line" smooth="yes"/>
      <point x="959" y="728"/>
      <point x="957" y="625"/>
      <point x="882" y="625" type="curve" smooth="yes"/>
      <point x="853" y="625"/>
      <point x="828" y="642"/>
      <point x="828" y="673" type="curve" smooth="yes"/>
      <point x="828" y="752"/>
      <point x="840" y="829"/>
      <point x="840" y="908" type="curve" smooth="yes"/>
      <point x="840" y="985"/>
      <point x="834" y="1062"/>
      <point x="832" y="1139" type="curve"/>
      <point x="820" y="1102"/>
      <point x="801" y="1077"/>
      <point x="801" y="1036" type="curve"/>
      <point x="796" y="1027" type="line"/>
      <point x="792" y="981"/>
      <point x="770" y="845"/>
      <point x="708" y="845" type="curve" smooth="yes"/>
      <point x="620" y="845"/>
      <point x="595" y="1174"/>
      <point x="574" y="1254" type="curve"/>
      <point x="570" y="1168"/>
      <point x="570" y="1082"/>
      <point x="570" y="996" type="curve" smooth="yes"/>
      <point x="570" y="928"/>
      <point x="582" y="861"/>
      <point x="582" y="793" type="curve" smooth="yes"/>
      <point x="582" y="742"/>
      <point x="580" y="621"/>
      <point x="505" y="621" type="curve" smooth="yes"/>
      <point x="466" y="621"/>
      <point x="457" y="658"/>
      <point x="457" y="690" type="curve" smooth="yes"/>
      <point x="457" y="764"/>
      <point x="470" y="836"/>
      <point x="470" y="910" type="curve" smooth="yes"/>
      <point x="470" y="1002"/>
      <point x="468" y="1095"/>
      <point x="468" y="1189" type="curve" smooth="yes"/>
      <point x="468" y="1303"/>
      <point x="471" y="1417"/>
      <point x="483" y="1529" type="curve"/>
      <point x="473" y="1486"/>
      <point x="423" y="1485"/>
      <point x="387" y="1485" type="curve"/>
      <point x="329" y="1487" type="line"/>
      <point x="325" y="1448"/>
      <point x="324" y="1408"/>
      <point x="324" y="1369" type="curve" smooth="yes"/>
      <point x="324" y="1206"/>
      <point x="337" y="1044"/>
      <point x="337" y="881" type="curve" smooth="yes"/>
      <point x="337" y="827"/>
      <point x="336" y="773"/>
      <point x="332" y="719" type="curve"/>
      <point x="334" y="712"/>
      <point x="340" y="698"/>
      <point x="340" y="691" type="curve" smooth="yes"/>
      <point x="340" y="654"/>
      <point x="301" y="637"/>
      <point x="271" y="629" type="curve"/>
      <point x="217" y="657" type="line"/>
      <point x="227" y="688"/>
      <point x="228" y="723"/>
      <point x="228" y="757" type="curve" smooth="yes"/>
    </contour>
  </outline>
</glyph>
<glyph name="foundryicon" format="1">
  <advance width="1251"/>
  <outline>
    <contour>
      <point x="604" y="375" type="curve" smooth="yes"/>
      <point x="592" y="375" type="line"/>
      <point x="541" y="332"/>
      <point x="449" y="260"/>
      <point x="397" y="221" type="curve"/>
      <point x="373" y="201"/>
      <point x="293" y="115"/>
      <point x="266" y="115" type="curve" smooth="yes"/>
      <point x="248" y="115"/>
      <point x="231" y="119"/>
      <point x="231" y="141" type="curve" smooth="yes"/>
      <point x="231" y="160"/>
      <point x="240" y="168"/>
      <point x="246" y="186" type="curve"/>
      <point x="270" y="297"/>
      <point x="324" y="418"/>
      <point x="354" y="516" type="curve"/>
      <point x="354" y="516"/>
      <point x="356" y="518"/>
      <point x="356" y="520" type="curve"/>
      <point x="354" y="522" type="line"/>
      <point x="295" y="604"/>
      <point x="213" y="668"/>
      <point x="137" y="735" type="curve" smooth="yes"/>
      <point x="104" y="764"/>
      <point x="18" y="791"/>
      <point x="18" y="840" type="curve" smooth="yes"/>
      <point x="18" y="860"/>
      <point x="33" y="870"/>
      <point x="57" y="870" type="curve" smooth="yes"/>
      <point x="68" y="870"/>
      <point x="197" y="848"/>
      <point x="279" y="848" type="curve"/>
      <point x="469" y="840" type="line"/>
      <point x="563" y="1075" type="line"/>
      <point x="594" y="1122"/>
      <point x="608" y="1235"/>
      <point x="666" y="1235" type="curve" smooth="yes"/>
      <point x="684" y="1235"/>
      <point x="715" y="1206"/>
      <point x="715" y="1188" type="curve" smooth="yes"/>
      <point x="715" y="1110"/>
      <point x="750" y="971"/>
      <point x="768" y="895" type="curve"/>
      <point x="778" y="848" type="line"/>
      <point x="836" y="844"/>
      <point x="909" y="842"/>
      <point x="981" y="842" type="curve" smooth="yes"/>
      <point x="1051" y="842"/>
      <point x="1110" y="848"/>
      <point x="1171" y="848" type="curve" smooth="yes"/>
      <point x="1198" y="848"/>
      <point x="1225" y="838"/>
      <point x="1225" y="807" type="curve" smooth="yes"/>
      <point x="1225" y="793"/>
      <point x="1147" y="750"/>
      <point x="1128" y="735" type="curve"/>
      <point x="1050" y="664"/>
      <point x="978" y="570"/>
      <point x="881" y="522" type="curve"/>
      <point x="881" y="510" type="line" smooth="yes"/>
      <point x="881" y="457"/>
      <point x="909" y="389"/>
      <point x="922" y="344" type="curve"/>
      <point x="930" y="342"/>
      <point x="975" y="135"/>
      <point x="975" y="106" type="curve" smooth="yes"/>
      <point x="975" y="86"/>
      <point x="963" y="72"/>
      <point x="942" y="72" type="curve" smooth="yes"/>
      <point x="889" y="72"/>
      <point x="723" y="375"/>
    </contour>
  </outline>
</glyph>
